<svg width="81" height="91" viewBox="0 0 81 91" fill="none" xmlns="http://www.w3.org/2000/svg">
<path d="M0.96 1.424C10.8587 0.741328 19.6053 0.399994 27.2 0.399994C48.2773 0.399994 58.816 7.43999 58.816 21.52C58.816 27.4933 57.3653 32.8267 54.464 37.52C51.5627 42.2133 46.5707 45.328 39.488 46.864L65.088 90H53.184L28.096 47.632H11.584V90H0.96V1.424ZM27.2 1.67999C22.2507 1.67999 17.0453 1.97866 11.584 2.576V46.352H30.528C42.56 45.84 48.576 37.648 48.576 21.776C48.576 15.2907 46.784 10.3413 43.2 6.92799C39.616 3.42933 34.2827 1.67999 27.2 1.67999ZM76.555 90.512C75.4457 90.512 74.4643 90.128 73.611 89.36C72.843 88.5067 72.459 87.5253 72.459 86.416C72.459 85.2213 72.843 84.24 73.611 83.472C74.379 82.704 75.3177 82.32 76.427 82.32C77.6217 82.32 78.603 82.7467 79.371 83.6C80.2243 84.368 80.651 85.3067 80.651 86.416C80.651 87.5253 80.2243 88.5067 79.371 89.36C78.603 90.128 77.6643 90.512 76.555 90.512Z" fill="#6EF3AE"/>
</svg>
