<svg id="visual" viewBox="0 0 900 600" width="900" height="600" xmlns="http://www.w3.org/2000/svg" xmlns:xlink="http://www.w3.org/1999/xlink" version="1.1"><path d="M0 362L25 367.8C50 373.7 100 385.3 150 390.2C200 395 250 393 300 390.3C350 387.7 400 384.3 450 391C500 397.7 550 414.3 600 413.8C650 413.3 700 395.7 750 384.8C800 374 850 370 875 368L900 366L900 601L875 601C850 601 800 601 750 601C700 601 650 601 600 601C550 601 500 601 450 601C400 601 350 601 300 601C250 601 200 601 150 601C100 601 50 601 25 601L0 601Z" fill="#deacfd"></path><path d="M0 444L25 449.2C50 454.3 100 464.7 150 464C200 463.3 250 451.7 300 447.3C350 443 400 446 450 443.3C500 440.7 550 432.3 600 434.8C650 437.3 700 450.7 750 454.5C800 458.3 850 452.7 875 449.8L900 447L900 601L875 601C850 601 800 601 750 601C700 601 650 601 600 601C550 601 500 601 450 601C400 601 350 601 300 601C250 601 200 601 150 601C100 601 50 601 25 601L0 601Z" fill="#cb85f9"></path><path d="M0 464L25 464.8C50 465.7 100 467.3 150 469.5C200 471.7 250 474.3 300 480.7C350 487 400 497 450 495.8C500 494.7 550 482.3 600 477.3C650 472.3 700 474.7 750 473.5C800 472.3 850 467.7 875 465.3L900 463L900 601L875 601C850 601 800 601 750 601C700 601 650 601 600 601C550 601 500 601 450 601C400 601 350 601 300 601C250 601 200 601 150 601C100 601 50 601 25 601L0 601Z" fill="#b75af5"></path><path d="M0 538L25 539.2C50 540.3 100 542.7 150 541.8C200 541 250 537 300 534C350 531 400 529 450 532.8C500 536.7 550 546.3 600 547.8C650 549.3 700 542.7 750 538C800 533.3 850 530.7 875 529.3L900 528L900 601L875 601C850 601 800 601 750 601C700 601 650 601 600 601C550 601 500 601 450 601C400 601 350 601 300 601C250 601 200 601 150 601C100 601 50 601 25 601L0 601Z" fill="#a020f0"></path></svg>