<svg id="visual" viewBox="0 0 900 600" width="900" height="600" xmlns="http://www.w3.org/2000/svg" xmlns:xlink="http://www.w3.org/1999/xlink" version="1.1"><path d="M0 276L25 276.3C50 276.7 100 277.3 150 283.2C200 289 250 300 300 302.5C350 305 400 299 450 304.3C500 309.7 550 326.3 600 321.8C650 317.3 700 291.7 750 287.2C800 282.7 850 299.3 875 307.7L900 316L900 601L875 601C850 601 800 601 750 601C700 601 650 601 600 601C550 601 500 601 450 601C400 601 350 601 300 601C250 601 200 601 150 601C100 601 50 601 25 601L0 601Z" fill="#deacfd"></path><path d="M0 357L25 368C50 379 100 401 150 408.3C200 415.7 250 408.3 300 401.8C350 395.3 400 389.7 450 390.3C500 391 550 398 600 390.8C650 383.7 700 362.3 750 356.2C800 350 850 359 875 363.5L900 368L900 601L875 601C850 601 800 601 750 601C700 601 650 601 600 601C550 601 500 601 450 601C400 601 350 601 300 601C250 601 200 601 150 601C100 601 50 601 25 601L0 601Z" fill="#cb85f9"></path><path d="M0 488L25 486.5C50 485 100 482 150 476.8C200 471.7 250 464.3 300 460C350 455.7 400 454.3 450 449.7C500 445 550 437 600 435.3C650 433.7 700 438.3 750 435C800 431.7 850 420.3 875 414.7L900 409L900 601L875 601C850 601 800 601 750 601C700 601 650 601 600 601C550 601 500 601 450 601C400 601 350 601 300 601C250 601 200 601 150 601C100 601 50 601 25 601L0 601Z" fill="#b75af5"></path><path d="M0 534L25 527C50 520 100 506 150 507.2C200 508.3 250 524.7 300 529.7C350 534.7 400 528.3 450 520.8C500 513.3 550 504.7 600 506.7C650 508.7 700 521.3 750 526.3C800 531.3 850 528.7 875 527.3L900 526L900 601L875 601C850 601 800 601 750 601C700 601 650 601 600 601C550 601 500 601 450 601C400 601 350 601 300 601C250 601 200 601 150 601C100 601 50 601 25 601L0 601Z" fill="#a020f0"></path></svg>