<svg width="325" height="327" viewBox="0 0 325 327" fill="none" xmlns="http://www.w3.org/2000/svg">
<path d="M0 3.00001C31 0.200011 62 -2.59999 83.9 14C105.7 30.7 118.5 66.8 139.5 85.4C160.5 104 189.7 105 207.9 119.1C226.1 133.2 233.2 160.3 251.1 182C269.1 203.7 298 220.1 312 243.4C326 266.7 325 296.8 324 327H0V3.00001Z" fill="#EBD5F5"/>
<path d="M0 84C23.2 81.9 46.5 79.8 62.9 92.3C79.3 104.8 88.9 131.8 104.6 145.8C120.4 159.7 142.3 160.5 155.9 171.1C169.5 181.6 174.9 201.9 188.4 218.2C201.9 234.6 223.5 246.8 234 264.3C244.5 281.8 243.7 304.4 243 327H0V84Z" fill="#D296F5"/>
<path d="M0 165C15.5 163.6 31 162.2 41.9 170.5C52.9 178.8 59.3 196.9 69.7 206.2C80.2 215.5 94.9 216 103.9 223.1C113 230.1 116.6 243.6 125.6 254.5C134.6 265.4 149 273.6 156 285.2C163 296.8 162.5 311.9 162 327H0V165Z" fill="#B351F2"/>
<path d="M0 246C7.7 245.3 15.5 244.6 21 248.8C26.4 252.9 29.6 261.9 34.9 266.6C40.1 271.2 47.4 271.5 52 275C56.5 278.5 58.3 285.3 62.8 290.7C67.3 296.2 74.5 300.3 78 306.1C81.5 311.9 81.2 319.5 81 327H0V246Z" fill="#A020F0"/>
</svg>
