<svg width="324" height="324" viewBox="0 0 324 324" fill="none" xmlns="http://www.w3.org/2000/svg">
<path d="M324 324C300.6 303.6 277.1 283.2 250.2 275.3C223.3 267.4 193 272.1 174.5 258.9C156 245.8 149.5 215 125.3 198.7C101.1 182.4 59.2 180.8 43.4 162C27.7 143.2 38.1 107.2 35.2 77.4C32.3 47.5 16.2 23.8 0 0H324V324Z" fill="#EBD5F5"/>
<path d="M324 243C306.4 227.7 288.9 212.4 268.7 206.5C248.5 200.6 225.7 204 211.9 194.2C198 184.4 193.1 161.2 175 149C156.8 136.8 125.4 135.6 113.6 121.5C101.7 107.4 109.5 80.4 107.4 58C105.2 35.6 93.1 17.8 81 0H324V243Z" fill="#D296F5"/>
<path d="M324 162C312.3 151.8 300.6 141.6 287.1 137.6C273.7 133.7 258.5 136 249.3 129.5C240 122.9 236.8 107.5 224.7 99.3C212.5 91.2 191.6 90.4 183.7 81C175.8 71.6 181 53.6 179.6 38.7C178.2 23.8 170.1 11.9 162 0H324V162Z" fill="#B351F2"/>
<path d="M324 81C318.1 75.9 312.3 70.8 305.6 68.8C298.8 66.9 291.2 68 286.6 64.7C282 61.5 280.4 53.7 274.3 49.7C268.3 45.6 257.8 45.2 253.9 40.5C249.9 35.8 252.5 26.8 251.8 19.3C251.1 11.9 247 5.9 243 0H324V81Z" fill="#A020F0"/>
</svg>
